<?xml version="1.0" standalone="no"?>
<!DOCTYPE svg PUBLIC "-//W3C//DTD SVG 20010904//EN"
 "http://www.w3.org/TR/2001/REC-SVG-20010904/DTD/svg10.dtd">
<svg version="1.0" xmlns="http://www.w3.org/2000/svg"
 width="640.000000pt" height="640.000000pt" viewBox="0 0 640.000000 640.000000"
 preserveAspectRatio="xMidYMid meet">
<metadata>
Created by potrace 1.16, written by Peter Selinger 2001-2019
</metadata>
<g transform="translate(0.000000,640.000000) scale(0.100000,-0.100000)"
fill="#000000" stroke="none">
<path d="M0 3200 l0 -3200 3200 0 3200 0 0 3200 0 3200 -3200 0 -3200 0 0
-3200z m3393 2353 c4 -2 7 -15 7 -29 0 -21 -5 -24 -34 -24 -38 0 -39 -2 -50
-135 -13 -148 -27 -293 -32 -323 -5 -29 -8 -33 -32 -30 l-27 3 2 105 c1 58 6
148 12 200 6 52 12 115 13 140 3 42 1 45 -26 50 -17 3 -29 8 -28 13 1 4 2 16
2 28 0 20 3 20 93 13 50 -3 95 -8 100 -11z m-543 0 c0 -5 -7 -62 -17 -129
l-17 -121 25 -54 c46 -99 93 -219 87 -224 -3 -3 -18 -7 -34 -8 -26 -2 -30 3
-63 88 -41 107 -39 103 -52 85 -5 -8 -9 -55 -7 -105 l3 -90 -30 0 c-34 0 -33
-1 -59 175 -8 58 -22 153 -31 211 -21 132 -19 153 17 157 31 4 31 6 54 -145
10 -62 20 -111 22 -108 3 2 11 59 18 127 7 67 16 128 18 135 6 14 66 19 66 6z
m979 -105 c81 -26 84 -29 72 -60 -10 -25 -11 -26 -48 -12 -21 7 -43 13 -48 14
-9 0 -65 -142 -65 -163 0 -4 18 -12 40 -18 34 -10 39 -15 34 -33 -10 -32 -20
-39 -42 -27 -46 24 -57 15 -86 -69 -15 -44 -25 -84 -22 -88 3 -5 23 -14 45
-22 43 -14 49 -25 28 -54 -12 -16 -16 -16 -80 8 -38 14 -72 28 -77 31 -9 6 1
39 94 307 66 191 72 208 83 208 4 0 36 -10 72 -22z m-1567 -61 c14 -12 40 -56
58 -97 17 -41 34 -82 39 -90 4 -8 29 -65 56 -127 59 -139 56 -156 -29 -192
-45 -19 -63 -22 -84 -15 -31 11 -29 7 -134 249 -97 223 -97 234 9 275 60 24
53 24 85 -3z m2013 -151 c25 -18 23 -23 -110 -232 -59 -92 -109 -174 -112
-182 -4 -9 6 -25 26 -41 22 -18 30 -32 26 -43 -12 -30 -31 -27 -94 13 l-62 39
17 32 c9 18 38 65 64 103 26 39 77 120 115 180 70 112 93 145 105 145 3 0 15
-6 25 -14z m-2475 -208 l43 -113 125 -94 124 -94 -26 -25 -25 -25 -53 41 c-29
23 -66 53 -82 67 -16 14 -31 23 -34 21 -10 -11 24 -85 59 -128 l39 -47 -22
-20 c-12 -12 -25 -21 -29 -21 -4 0 -44 46 -88 103 -45 56 -121 151 -168 211
l-87 108 23 19 c35 28 26 34 118 -81 47 -60 66 -80 70 -77 2 3 -17 57 -43 121
-46 113 -47 117 -28 131 10 8 24 15 30 15 6 0 31 -51 54 -112z m2954 -205 c-5
-8 -91 -65 -190 -126 -238 -147 -223 -133 -179 -175 34 -33 35 -36 19 -53 -10
-11 -21 -19 -26 -19 -5 0 -35 28 -68 61 -45 46 -58 65 -50 74 6 7 61 43 123
81 62 37 135 82 164 101 28 18 55 33 60 33 12 1 53 37 53 47 0 5 -11 20 -25
33 -29 28 -32 48 -7 66 15 12 24 6 77 -47 45 -47 57 -64 49 -76z m-791 -2779
c16 -43 31 -88 34 -99 4 -11 9 -22 13 -25 11 -9 50 -77 50 -89 0 -24 -37 -9
-55 22 -10 17 -56 69 -102 115 -46 45 -83 86 -83 91 0 5 7 12 16 15 10 4 29
-9 56 -39 23 -25 43 -44 45 -42 2 2 -6 27 -18 55 -21 51 -20 87 3 80 7 -3 25
-40 41 -84z m-1599 25 c26 -15 36 -28 36 -46 0 -32 -40 -101 -62 -107 -11 -2
-18 -14 -18 -28 0 -37 -55 -118 -81 -118 -21 0 -89 36 -89 47 0 6 80 143 132
226 17 26 34 47 38 47 5 0 25 -9 44 -21z m1422 -101 c16 -29 45 -83 64 -121
32 -62 37 -67 64 -65 16 2 31 -2 33 -8 5 -15 -66 -59 -77 -48 -24 26 -151 274
-145 285 13 20 32 7 61 -43z m-1302 12 c-1 -14 -4 -45 -9 -70 l-7 -45 33 53
c31 47 60 65 73 44 2 -4 -22 -44 -55 -87 -33 -44 -73 -106 -90 -137 -16 -32
-34 -58 -39 -58 -19 0 -22 28 -6 58 12 23 66 243 66 269 0 2 8 3 18 1 11 -2
17 -12 16 -28z m1196 -15 c0 -9 -12 -20 -26 -25 -27 -11 -27 -25 2 -81 10 -21
19 -25 39 -22 31 6 35 -21 6 -37 -20 -10 -20 -11 -1 -53 17 -37 23 -42 51 -42
43 0 48 -20 10 -39 -40 -21 -70 -20 -77 2 -4 9 -26 65 -49 123 -63 153 -64
155 -23 173 44 19 68 19 68 1z m-151 -133 c19 -48 42 -104 52 -125 28 -60 33
-93 14 -101 -12 -4 -21 4 -33 34 -11 26 -23 40 -36 40 -16 0 -17 -5 -12 -45 6
-36 4 -46 -9 -51 -9 -4 -19 -4 -22 0 -3 3 -12 50 -19 103 -27 199 -28 214 -13
224 32 20 44 8 78 -79z m-775 70 c4 -7 -7 -70 -20 -116 -12 -37 16 -5 43 50
17 36 32 54 45 54 25 0 23 -14 -14 -79 -31 -52 -33 -62 -33 -151 0 -78 -3 -95
-15 -95 -11 0 -16 14 -18 55 -5 87 -28 86 -46 -2 -5 -20 -13 -28 -27 -28 -25
0 -24 8 17 175 13 55 26 110 29 123 5 21 29 30 39 14z m601 -63 c0 -24 -4 -91
-9 -148 l-8 -104 31 6 c26 5 31 3 31 -12 0 -19 -34 -31 -88 -31 -23 0 -24 2
-18 38 3 20 9 85 12 145 l7 107 -32 0 c-26 0 -32 4 -29 18 2 11 16 19 43 23
57 9 60 7 60 -42z m-367 -136 c2 -156 2 -163 -17 -163 -16 0 -20 8 -23 43 -4
53 -28 57 -41 7 -11 -43 -18 -52 -36 -41 -11 7 -8 35 20 165 l34 157 30 -3 30
-3 3 -162z m207 155 c2 -7 6 -82 10 -166 5 -137 4 -153 -11 -159 -25 -9 -41
19 -55 98 -18 101 -31 97 -28 -7 3 -74 1 -89 -12 -92 -20 -4 -29 59 -29 216 0
110 0 112 23 112 19 0 24 -10 43 -88 l22 -87 1 86 c0 47 4 89 8 92 10 11 23 8
28 -5z"/>
<path d="M2177 5323 c-13 -12 -7 -36 39 -142 77 -178 113 -251 123 -251 23 0
41 14 41 31 0 10 -18 61 -41 111 -23 51 -55 125 -72 163 -17 39 -35 76 -40 83
-10 13 -39 16 -50 5z"/>
</g>
</svg>
